<?xml version="1.0" encoding="UTF-8"?><svg xmlns="http://www.w3.org/2000/svg" xmlns:xlink="http://www.w3.org/1999/xlink" fill-opacity="1" color-rendering="auto" color-interpolation="auto" text-rendering="auto" stroke="black" stroke-linecap="square" width="371" stroke-miterlimit="10" shape-rendering="auto" stroke-opacity="1" fill="black" stroke-dasharray="none" font-weight="normal" stroke-width="1" height="366" font-family="'Dialog'" font-style="normal" stroke-linejoin="miter" font-size="12px" stroke-dashoffset="0" image-rendering="auto">
  <!--Generated by ySVG 2.5-->
  <defs id="genericDefs"/>
  <g>
    <defs id="defs1">
      <clipPath clipPathUnits="userSpaceOnUse" id="clipPath1">
        <path d="M0 0 L371 0 L371 366 L0 366 L0 0 Z"/>
      </clipPath>
      <clipPath clipPathUnits="userSpaceOnUse" id="clipPath2">
        <path d="M-15 61 L356 61 L356 427 L-15 427 L-15 61 Z"/>
      </clipPath>
    </defs>
    <g fill="white" text-rendering="geometricPrecision" shape-rendering="geometricPrecision" transform="translate(15,-61)" stroke="white">
      <rect x="-15" width="371" height="366" y="61" clip-path="url(#clipPath2)" stroke="none"/>
    </g>
    <g fill="rgb(204,204,255)" text-rendering="geometricPrecision" shape-rendering="geometricPrecision" transform="matrix(1,0,0,1,15,-61)" stroke="rgb(204,204,255)">
      <rect x="27.24" width="51.76" height="30" y="76" clip-path="url(#clipPath2)" stroke="none"/>
    </g>
    <g text-rendering="geometricPrecision" stroke-miterlimit="1.45" shape-rendering="geometricPrecision" transform="matrix(1,0,0,1,15,-61)" stroke-linecap="butt">
      <rect fill="none" x="27.24" width="51.76" height="30" y="76" clip-path="url(#clipPath2)"/>
      <text x="33.32" y="95.55" clip-path="url(#clipPath2)" font-family="'Dank Mono'" font-style="italic" stroke="none" xml:space="preserve">Dougie</text>
    </g>
    <g fill="rgb(204,204,255)" text-rendering="geometricPrecision" shape-rendering="geometricPrecision" transform="matrix(1,0,0,1,15,-61)" stroke="rgb(204,204,255)">
      <rect x="0.24" width="51.76" height="30" y="154" clip-path="url(#clipPath2)" stroke="none"/>
    </g>
    <g text-rendering="geometricPrecision" stroke-miterlimit="1.45" shape-rendering="geometricPrecision" transform="matrix(1,0,0,1,15,-61)" stroke-linecap="butt">
      <rect fill="none" x="0.24" width="51.76" height="30" y="154" clip-path="url(#clipPath2)"/>
      <text x="6.32" y="173.55" clip-path="url(#clipPath2)" font-family="'Dank Mono'" font-style="italic" stroke="none" xml:space="preserve">Cooper</text>
    </g>
    <g fill="rgb(204,204,255)" text-rendering="geometricPrecision" shape-rendering="geometricPrecision" transform="matrix(1,0,0,1,15,-61)" stroke="rgb(204,204,255)">
      <circle r="15" clip-path="url(#clipPath2)" cx="101.12" cy="154" stroke="none"/>
    </g>
    <g text-rendering="geometricPrecision" stroke-miterlimit="1.45" shape-rendering="geometricPrecision" transform="matrix(1,0,0,1,15,-61)" stroke-linecap="butt">
      <circle fill="none" r="15" clip-path="url(#clipPath2)" cx="101.12" cy="154"/>
      <text x="97.82" y="158.55" clip-path="url(#clipPath2)" font-family="'Dank Mono'" font-style="italic" stroke="none" xml:space="preserve">0</text>
    </g>
    <g fill="rgb(204,204,255)" text-rendering="geometricPrecision" shape-rendering="geometricPrecision" transform="matrix(1,0,0,1,15,-61)" stroke="rgb(204,204,255)">
      <circle r="15" clip-path="url(#clipPath2)" cx="172.12" cy="193" stroke="none"/>
    </g>
    <g text-rendering="geometricPrecision" stroke-miterlimit="1.45" shape-rendering="geometricPrecision" transform="matrix(1,0,0,1,15,-61)" stroke-linecap="butt">
      <circle fill="none" r="15" clip-path="url(#clipPath2)" cx="172.12" cy="193"/>
      <text x="168.82" y="197.55" clip-path="url(#clipPath2)" font-family="'Dank Mono'" font-style="italic" stroke="none" xml:space="preserve">1</text>
    </g>
    <g fill="rgb(204,204,255)" text-rendering="geometricPrecision" shape-rendering="geometricPrecision" transform="matrix(1,0,0,1,15,-61)" stroke="rgb(204,204,255)">
      <rect x="181.24" width="51.76" height="30" y="105" clip-path="url(#clipPath2)" stroke="none"/>
    </g>
    <g text-rendering="geometricPrecision" stroke-miterlimit="1.45" shape-rendering="geometricPrecision" transform="matrix(1,0,0,1,15,-61)" stroke-linecap="butt">
      <rect fill="none" x="181.24" width="51.76" height="30" y="105" clip-path="url(#clipPath2)"/>
      <text x="193.92" y="124.55" clip-path="url(#clipPath2)" font-family="'Dank Mono'" font-style="italic" stroke="none" xml:space="preserve">Lucy</text>
    </g>
    <g fill="rgb(204,204,255)" text-rendering="geometricPrecision" shape-rendering="geometricPrecision" transform="matrix(1,0,0,1,15,-61)" stroke="rgb(204,204,255)">
      <circle r="15" clip-path="url(#clipPath2)" cx="237.12" cy="228" stroke="none"/>
    </g>
    <g text-rendering="geometricPrecision" stroke-miterlimit="1.45" shape-rendering="geometricPrecision" transform="matrix(1,0,0,1,15,-61)" stroke-linecap="butt">
      <circle fill="none" r="15" clip-path="url(#clipPath2)" cx="237.12" cy="228"/>
      <text x="233.82" y="232.55" clip-path="url(#clipPath2)" font-family="'Dank Mono'" font-style="italic" stroke="none" xml:space="preserve">2</text>
    </g>
    <g fill="rgb(204,204,255)" text-rendering="geometricPrecision" shape-rendering="geometricPrecision" transform="matrix(1,0,0,1,15,-61)" stroke="rgb(204,204,255)">
      <circle r="15" clip-path="url(#clipPath2)" cx="179.12" cy="272" stroke="none"/>
    </g>
    <g text-rendering="geometricPrecision" stroke-miterlimit="1.45" shape-rendering="geometricPrecision" transform="matrix(1,0,0,1,15,-61)" stroke-linecap="butt">
      <circle fill="none" r="15" clip-path="url(#clipPath2)" cx="179.12" cy="272"/>
      <text x="175.82" y="276.55" clip-path="url(#clipPath2)" font-family="'Dank Mono'" font-style="italic" stroke="none" xml:space="preserve">3</text>
    </g>
    <g fill="rgb(204,204,255)" text-rendering="geometricPrecision" shape-rendering="geometricPrecision" transform="matrix(1,0,0,1,15,-61)" stroke="rgb(204,204,255)">
      <rect x="289.24" width="51.76" height="30" y="209" clip-path="url(#clipPath2)" stroke="none"/>
    </g>
    <g text-rendering="geometricPrecision" stroke-miterlimit="1.45" shape-rendering="geometricPrecision" transform="matrix(1,0,0,1,15,-61)" stroke-linecap="butt">
      <rect fill="none" x="289.24" width="51.76" height="30" y="209" clip-path="url(#clipPath2)"/>
      <text x="298.62" y="228.55" clip-path="url(#clipPath2)" font-family="'Dank Mono'" font-style="italic" stroke="none" xml:space="preserve">Harry</text>
    </g>
    <g fill="rgb(204,204,255)" text-rendering="geometricPrecision" shape-rendering="geometricPrecision" transform="matrix(1,0,0,1,15,-61)" stroke="rgb(204,204,255)">
      <rect x="184.24" width="51.76" height="30" y="331" clip-path="url(#clipPath2)" stroke="none"/>
    </g>
    <g text-rendering="geometricPrecision" stroke-miterlimit="1.45" shape-rendering="geometricPrecision" transform="matrix(1,0,0,1,15,-61)" stroke-linecap="butt">
      <rect fill="none" x="184.24" width="51.76" height="30" y="331" clip-path="url(#clipPath2)"/>
      <text x="196.92" y="350.55" clip-path="url(#clipPath2)" font-family="'Dank Mono'" font-style="italic" stroke="none" xml:space="preserve">Hawk</text>
    </g>
    <g fill="rgb(204,204,255)" text-rendering="geometricPrecision" shape-rendering="geometricPrecision" transform="matrix(1,0,0,1,15,-61)" stroke="rgb(204,204,255)">
      <circle r="15" clip-path="url(#clipPath2)" cx="135.12" cy="336" stroke="none"/>
    </g>
    <g text-rendering="geometricPrecision" stroke-miterlimit="1.45" shape-rendering="geometricPrecision" transform="matrix(1,0,0,1,15,-61)" stroke-linecap="butt">
      <circle fill="none" r="15" clip-path="url(#clipPath2)" cx="135.12" cy="336"/>
      <text x="131.82" y="340.55" clip-path="url(#clipPath2)" font-family="'Dank Mono'" font-style="italic" stroke="none" xml:space="preserve">4</text>
    </g>
    <g fill="rgb(204,204,255)" text-rendering="geometricPrecision" shape-rendering="geometricPrecision" transform="matrix(1,0,0,1,15,-61)" stroke="rgb(204,204,255)">
      <rect x="58.24" width="51.76" height="30" y="382" clip-path="url(#clipPath2)" stroke="none"/>
    </g>
    <g text-rendering="geometricPrecision" stroke-miterlimit="1.45" shape-rendering="geometricPrecision" transform="matrix(1,0,0,1,15,-61)" stroke-linecap="butt">
      <rect fill="none" x="58.24" width="51.76" height="30" y="382" clip-path="url(#clipPath2)"/>
      <text x="64.32" y="401.55" clip-path="url(#clipPath2)" font-family="'Dank Mono'" font-style="italic" stroke="none" xml:space="preserve">Gordon</text>
    </g>
    <g fill="rgb(204,204,255)" text-rendering="geometricPrecision" shape-rendering="geometricPrecision" transform="matrix(1,0,0,1,15,-61)" stroke="rgb(204,204,255)">
      <rect x="34.24" width="51.76" height="30" y="257" clip-path="url(#clipPath2)" stroke="none"/>
    </g>
    <g text-rendering="geometricPrecision" stroke-miterlimit="1.45" shape-rendering="geometricPrecision" transform="matrix(1,0,0,1,15,-61)" stroke-linecap="butt">
      <rect fill="none" x="34.24" width="51.76" height="30" y="257" clip-path="url(#clipPath2)"/>
      <text x="37.02" y="276.55" clip-path="url(#clipPath2)" font-family="'Dank Mono'" font-style="italic" stroke="none" xml:space="preserve">Phillip</text>
      <path fill="none" d="M31.3123 154 L47.9277 106" clip-path="url(#clipPath2)"/>
      <path fill="none" d="M64.5486 106 L92.0294 142.0685" clip-path="url(#clipPath2)"/>
      <path fill="none" d="M52 163.824 L86.4113 156.9417" clip-path="url(#clipPath2)"/>
      <path fill="none" d="M114.2671 161.2217 L158.9729 185.7783" clip-path="url(#clipPath2)"/>
      <path fill="none" d="M178.6049 179.4743 L199.9282 135" clip-path="url(#clipPath2)"/>
      <path fill="none" d="M185.3271 200.1115 L223.9129 220.8885" clip-path="url(#clipPath2)"/>
      <path fill="none" d="M225.1696 237.0658 L191.0704 262.9342" clip-path="url(#clipPath2)"/>
      <path fill="none" d="M173.4439 207.9415 L177.7961 257.0585" clip-path="url(#clipPath2)"/>
      <path fill="none" d="M252.1003 227.2318 L289.24 225.3272" clip-path="url(#clipPath2)"/>
      <path fill="none" d="M184.9158 285.8351 L203.8362 331" clip-path="url(#clipPath2)"/>
      <path fill="none" d="M170.6221 284.3606 L143.6179 323.6394" clip-path="url(#clipPath2)"/>
      <path fill="none" d="M184.24 342.5493 L149.9884 337.9825" clip-path="url(#clipPath2)"/>
      <path fill="none" d="M125.4987 347.5078 L96.661 382" clip-path="url(#clipPath2)"/>
    </g>
  </g>
</svg>
